<mxfile host="app.diagrams.net" modified="2020-10-16T15:21:18.071Z" agent="5.0 (Windows NT 10.0; Win64; x64) AppleWebKit/537.36 (KHTML, like Gecko) Chrome/85.0.4183.121 Safari/537.36" etag="V2gNcGhVQT9cyUIpBFik" version="13.8.0" type="github">
  <diagram id="Y0iqEMKe3NyBRocsyML2" name="Page-1">
    <mxGraphModel dx="2274" dy="750" grid="1" gridSize="10" guides="1" tooltips="1" connect="1" arrows="1" fold="1" page="1" pageScale="1" pageWidth="827" pageHeight="1169" math="0" shadow="0">
      <root>
        <mxCell id="0" />
        <mxCell id="1" parent="0" />
        <mxCell id="ayqMSGN1y0b__XrFQyUM-2" value="Publisher" style="rounded=0;whiteSpace=wrap;html=1;" vertex="1" parent="1">
          <mxGeometry x="-503" y="560" width="120" height="60" as="geometry" />
        </mxCell>
        <mxCell id="ayqMSGN1y0b__XrFQyUM-3" value="Author" style="rounded=0;whiteSpace=wrap;html=1;" vertex="1" parent="1">
          <mxGeometry x="-130" y="220" width="120" height="60" as="geometry" />
        </mxCell>
        <mxCell id="ayqMSGN1y0b__XrFQyUM-4" value="Books" style="rounded=0;whiteSpace=wrap;html=1;" vertex="1" parent="1">
          <mxGeometry x="-503" y="220" width="120" height="60" as="geometry" />
        </mxCell>
        <mxCell id="ayqMSGN1y0b__XrFQyUM-5" value="ISBN" style="ellipse;whiteSpace=wrap;html=1;fontStyle=4" vertex="1" parent="1">
          <mxGeometry x="-690" y="80" width="120" height="80" as="geometry" />
        </mxCell>
        <mxCell id="ayqMSGN1y0b__XrFQyUM-6" value="Price" style="ellipse;whiteSpace=wrap;html=1;" vertex="1" parent="1">
          <mxGeometry x="-750" y="170" width="120" height="80" as="geometry" />
        </mxCell>
        <mxCell id="ayqMSGN1y0b__XrFQyUM-7" value="Title" style="ellipse;whiteSpace=wrap;html=1;" vertex="1" parent="1">
          <mxGeometry x="-750" y="270" width="120" height="80" as="geometry" />
        </mxCell>
        <mxCell id="ayqMSGN1y0b__XrFQyUM-8" value="Year" style="ellipse;whiteSpace=wrap;html=1;" vertex="1" parent="1">
          <mxGeometry x="-690" y="360" width="120" height="80" as="geometry" />
        </mxCell>
        <mxCell id="ayqMSGN1y0b__XrFQyUM-9" value="" style="endArrow=none;html=1;exitX=1;exitY=0.5;exitDx=0;exitDy=0;entryX=0;entryY=1;entryDx=0;entryDy=0;" edge="1" parent="1" source="ayqMSGN1y0b__XrFQyUM-8" target="ayqMSGN1y0b__XrFQyUM-4">
          <mxGeometry width="50" height="50" relative="1" as="geometry">
            <mxPoint x="-560" y="350" as="sourcePoint" />
            <mxPoint x="-510" y="300" as="targetPoint" />
          </mxGeometry>
        </mxCell>
        <mxCell id="ayqMSGN1y0b__XrFQyUM-10" value="" style="endArrow=none;html=1;entryX=0;entryY=0.75;entryDx=0;entryDy=0;exitX=1;exitY=0.5;exitDx=0;exitDy=0;" edge="1" parent="1" source="ayqMSGN1y0b__XrFQyUM-7" target="ayqMSGN1y0b__XrFQyUM-4">
          <mxGeometry width="50" height="50" relative="1" as="geometry">
            <mxPoint x="-620" y="320" as="sourcePoint" />
            <mxPoint x="-570" y="270" as="targetPoint" />
          </mxGeometry>
        </mxCell>
        <mxCell id="ayqMSGN1y0b__XrFQyUM-11" value="" style="endArrow=none;html=1;exitX=1;exitY=0.5;exitDx=0;exitDy=0;entryX=0;entryY=0.25;entryDx=0;entryDy=0;" edge="1" parent="1" source="ayqMSGN1y0b__XrFQyUM-6" target="ayqMSGN1y0b__XrFQyUM-4">
          <mxGeometry width="50" height="50" relative="1" as="geometry">
            <mxPoint x="-610" y="290" as="sourcePoint" />
            <mxPoint x="-560" y="240" as="targetPoint" />
          </mxGeometry>
        </mxCell>
        <mxCell id="ayqMSGN1y0b__XrFQyUM-12" value="" style="endArrow=none;html=1;exitX=1;exitY=0.5;exitDx=0;exitDy=0;entryX=0;entryY=0;entryDx=0;entryDy=0;" edge="1" parent="1" source="ayqMSGN1y0b__XrFQyUM-5" target="ayqMSGN1y0b__XrFQyUM-4">
          <mxGeometry width="50" height="50" relative="1" as="geometry">
            <mxPoint x="-570" y="200" as="sourcePoint" />
            <mxPoint x="-520" y="150" as="targetPoint" />
          </mxGeometry>
        </mxCell>
        <mxCell id="ayqMSGN1y0b__XrFQyUM-13" value="Name" style="ellipse;whiteSpace=wrap;html=1;" vertex="1" parent="1">
          <mxGeometry x="40" y="90" width="120" height="80" as="geometry" />
        </mxCell>
        <mxCell id="ayqMSGN1y0b__XrFQyUM-14" value="ID" style="ellipse;whiteSpace=wrap;html=1;fontStyle=4" vertex="1" parent="1">
          <mxGeometry x="110" y="170" width="120" height="80" as="geometry" />
        </mxCell>
        <mxCell id="ayqMSGN1y0b__XrFQyUM-15" value="URL" style="ellipse;whiteSpace=wrap;html=1;" vertex="1" parent="1">
          <mxGeometry x="40" y="340" width="120" height="80" as="geometry" />
        </mxCell>
        <mxCell id="ayqMSGN1y0b__XrFQyUM-16" value="LastName" style="ellipse;whiteSpace=wrap;html=1;" vertex="1" parent="1">
          <mxGeometry x="160" width="120" height="80" as="geometry" />
        </mxCell>
        <mxCell id="ayqMSGN1y0b__XrFQyUM-17" value="FirstName" style="ellipse;whiteSpace=wrap;html=1;" vertex="1" parent="1">
          <mxGeometry x="-80" width="120" height="80" as="geometry" />
        </mxCell>
        <mxCell id="ayqMSGN1y0b__XrFQyUM-18" value="Address" style="ellipse;whiteSpace=wrap;html=1;" vertex="1" parent="1">
          <mxGeometry x="110" y="260" width="120" height="80" as="geometry" />
        </mxCell>
        <mxCell id="ayqMSGN1y0b__XrFQyUM-20" value="" style="endArrow=none;html=1;entryX=0;entryY=0.5;entryDx=0;entryDy=0;exitX=1;exitY=0.5;exitDx=0;exitDy=0;" edge="1" parent="1" source="ayqMSGN1y0b__XrFQyUM-4" target="ayqMSGN1y0b__XrFQyUM-19">
          <mxGeometry width="50" height="50" relative="1" as="geometry">
            <mxPoint x="-370" y="270" as="sourcePoint" />
            <mxPoint x="-320" y="220" as="targetPoint" />
          </mxGeometry>
        </mxCell>
        <mxCell id="ayqMSGN1y0b__XrFQyUM-21" value="" style="endArrow=none;html=1;exitX=1;exitY=0.5;exitDx=0;exitDy=0;entryX=0;entryY=0.5;entryDx=0;entryDy=0;" edge="1" parent="1" source="ayqMSGN1y0b__XrFQyUM-19" target="ayqMSGN1y0b__XrFQyUM-3">
          <mxGeometry width="50" height="50" relative="1" as="geometry">
            <mxPoint x="-190" y="249.9999999999999" as="sourcePoint" />
            <mxPoint x="-127" y="250" as="targetPoint" />
          </mxGeometry>
        </mxCell>
        <mxCell id="ayqMSGN1y0b__XrFQyUM-24" value="" style="endArrow=none;html=1;exitX=0.597;exitY=0.01;exitDx=0;exitDy=0;exitPerimeter=0;entryX=0;entryY=0.5;entryDx=0;entryDy=0;" edge="1" parent="1" source="ayqMSGN1y0b__XrFQyUM-13" target="ayqMSGN1y0b__XrFQyUM-16">
          <mxGeometry width="50" height="50" relative="1" as="geometry">
            <mxPoint x="100" y="65" as="sourcePoint" />
            <mxPoint x="150" y="15" as="targetPoint" />
          </mxGeometry>
        </mxCell>
        <mxCell id="ayqMSGN1y0b__XrFQyUM-25" value="" style="endArrow=none;html=1;entryX=1;entryY=0.5;entryDx=0;entryDy=0;exitX=0.417;exitY=0;exitDx=0;exitDy=0;exitPerimeter=0;" edge="1" parent="1" source="ayqMSGN1y0b__XrFQyUM-13" target="ayqMSGN1y0b__XrFQyUM-17">
          <mxGeometry width="50" height="50" relative="1" as="geometry">
            <mxPoint x="-10" y="130" as="sourcePoint" />
            <mxPoint x="40" y="80" as="targetPoint" />
          </mxGeometry>
        </mxCell>
        <mxCell id="ayqMSGN1y0b__XrFQyUM-26" value="" style="endArrow=none;html=1;entryX=1;entryY=1;entryDx=0;entryDy=0;exitX=0;exitY=0.5;exitDx=0;exitDy=0;" edge="1" parent="1" source="ayqMSGN1y0b__XrFQyUM-15" target="ayqMSGN1y0b__XrFQyUM-3">
          <mxGeometry width="50" height="50" relative="1" as="geometry">
            <mxPoint x="-95" y="340" as="sourcePoint" />
            <mxPoint x="-45" y="290" as="targetPoint" />
          </mxGeometry>
        </mxCell>
        <mxCell id="ayqMSGN1y0b__XrFQyUM-27" value="" style="endArrow=none;html=1;entryX=0;entryY=0.5;entryDx=0;entryDy=0;exitX=1;exitY=0.75;exitDx=0;exitDy=0;" edge="1" parent="1" source="ayqMSGN1y0b__XrFQyUM-3" target="ayqMSGN1y0b__XrFQyUM-18">
          <mxGeometry width="50" height="50" relative="1" as="geometry">
            <mxPoint x="10" y="300" as="sourcePoint" />
            <mxPoint x="60" y="250" as="targetPoint" />
          </mxGeometry>
        </mxCell>
        <mxCell id="ayqMSGN1y0b__XrFQyUM-28" value="" style="endArrow=none;html=1;entryX=0;entryY=0.5;entryDx=0;entryDy=0;exitX=1.014;exitY=0.361;exitDx=0;exitDy=0;exitPerimeter=0;" edge="1" parent="1" source="ayqMSGN1y0b__XrFQyUM-3" target="ayqMSGN1y0b__XrFQyUM-14">
          <mxGeometry width="50" height="50" relative="1" as="geometry">
            <mxPoint x="-10" y="240" as="sourcePoint" />
            <mxPoint x="40" y="190" as="targetPoint" />
          </mxGeometry>
        </mxCell>
        <mxCell id="ayqMSGN1y0b__XrFQyUM-29" value="" style="endArrow=none;html=1;entryX=0;entryY=0.5;entryDx=0;entryDy=0;" edge="1" parent="1" target="ayqMSGN1y0b__XrFQyUM-13">
          <mxGeometry width="50" height="50" relative="1" as="geometry">
            <mxPoint x="-10" y="220" as="sourcePoint" />
            <mxPoint x="40" y="170" as="targetPoint" />
          </mxGeometry>
        </mxCell>
        <mxCell id="ayqMSGN1y0b__XrFQyUM-31" value="Phone" style="ellipse;whiteSpace=wrap;html=1;" vertex="1" parent="1">
          <mxGeometry x="-370" y="700" width="120" height="80" as="geometry" />
        </mxCell>
        <mxCell id="ayqMSGN1y0b__XrFQyUM-32" value="URL" style="ellipse;whiteSpace=wrap;html=1;" vertex="1" parent="1">
          <mxGeometry x="-300" y="620" width="120" height="80" as="geometry" />
        </mxCell>
        <mxCell id="ayqMSGN1y0b__XrFQyUM-33" value="ID" style="ellipse;whiteSpace=wrap;html=1;fontStyle=4" vertex="1" parent="1">
          <mxGeometry x="-503" y="705" width="120" height="80" as="geometry" />
        </mxCell>
        <mxCell id="ayqMSGN1y0b__XrFQyUM-34" value="Name" style="ellipse;whiteSpace=wrap;html=1;" vertex="1" parent="1">
          <mxGeometry x="-640" y="700" width="120" height="80" as="geometry" />
        </mxCell>
        <mxCell id="ayqMSGN1y0b__XrFQyUM-35" value="Address" style="ellipse;whiteSpace=wrap;html=1;" vertex="1" parent="1">
          <mxGeometry x="-700" y="620" width="120" height="80" as="geometry" />
        </mxCell>
        <mxCell id="ayqMSGN1y0b__XrFQyUM-36" value="" style="endArrow=none;html=1;exitX=1;exitY=0.5;exitDx=0;exitDy=0;entryX=0;entryY=0.5;entryDx=0;entryDy=0;" edge="1" parent="1" source="ayqMSGN1y0b__XrFQyUM-2" target="ayqMSGN1y0b__XrFQyUM-32">
          <mxGeometry width="50" height="50" relative="1" as="geometry">
            <mxPoint x="-350" y="610" as="sourcePoint" />
            <mxPoint x="-300" y="560" as="targetPoint" />
          </mxGeometry>
        </mxCell>
        <mxCell id="ayqMSGN1y0b__XrFQyUM-37" value="" style="endArrow=none;html=1;entryX=1;entryY=1;entryDx=0;entryDy=0;exitX=0.317;exitY=0.05;exitDx=0;exitDy=0;exitPerimeter=0;" edge="1" parent="1" source="ayqMSGN1y0b__XrFQyUM-31" target="ayqMSGN1y0b__XrFQyUM-2">
          <mxGeometry width="50" height="50" relative="1" as="geometry">
            <mxPoint x="-413" y="685" as="sourcePoint" />
            <mxPoint x="-363" y="635" as="targetPoint" />
          </mxGeometry>
        </mxCell>
        <mxCell id="ayqMSGN1y0b__XrFQyUM-38" value="" style="endArrow=none;html=1;entryX=0.5;entryY=1;entryDx=0;entryDy=0;exitX=0.5;exitY=0;exitDx=0;exitDy=0;" edge="1" parent="1" source="ayqMSGN1y0b__XrFQyUM-33" target="ayqMSGN1y0b__XrFQyUM-2">
          <mxGeometry width="50" height="50" relative="1" as="geometry">
            <mxPoint x="-475" y="685" as="sourcePoint" />
            <mxPoint x="-425" y="635" as="targetPoint" />
          </mxGeometry>
        </mxCell>
        <mxCell id="ayqMSGN1y0b__XrFQyUM-39" value="" style="endArrow=none;html=1;entryX=0;entryY=1;entryDx=0;entryDy=0;exitX=0.742;exitY=0.063;exitDx=0;exitDy=0;exitPerimeter=0;" edge="1" parent="1" source="ayqMSGN1y0b__XrFQyUM-34" target="ayqMSGN1y0b__XrFQyUM-2">
          <mxGeometry width="50" height="50" relative="1" as="geometry">
            <mxPoint x="-530" y="685" as="sourcePoint" />
            <mxPoint x="-480" y="635" as="targetPoint" />
          </mxGeometry>
        </mxCell>
        <mxCell id="ayqMSGN1y0b__XrFQyUM-40" value="" style="endArrow=none;html=1;exitX=1;exitY=0.5;exitDx=0;exitDy=0;entryX=0;entryY=0.5;entryDx=0;entryDy=0;" edge="1" parent="1" source="ayqMSGN1y0b__XrFQyUM-35" target="ayqMSGN1y0b__XrFQyUM-2">
          <mxGeometry width="50" height="50" relative="1" as="geometry">
            <mxPoint x="-560" y="680" as="sourcePoint" />
            <mxPoint x="-510" y="630" as="targetPoint" />
          </mxGeometry>
        </mxCell>
        <mxCell id="ayqMSGN1y0b__XrFQyUM-42" value="" style="endArrow=none;html=1;exitX=0.5;exitY=0;exitDx=0;exitDy=0;entryX=0.5;entryY=1;entryDx=0;entryDy=0;" edge="1" parent="1" source="ayqMSGN1y0b__XrFQyUM-41" target="ayqMSGN1y0b__XrFQyUM-4">
          <mxGeometry width="50" height="50" relative="1" as="geometry">
            <mxPoint x="-400" y="335" as="sourcePoint" />
            <mxPoint x="-350" y="285" as="targetPoint" />
          </mxGeometry>
        </mxCell>
        <mxCell id="ayqMSGN1y0b__XrFQyUM-43" value="" style="endArrow=none;html=1;entryX=0.5;entryY=1;entryDx=0;entryDy=0;exitX=0.5;exitY=0;exitDx=0;exitDy=0;" edge="1" parent="1" source="ayqMSGN1y0b__XrFQyUM-2" target="ayqMSGN1y0b__XrFQyUM-41">
          <mxGeometry width="50" height="50" relative="1" as="geometry">
            <mxPoint x="-533" y="425" as="sourcePoint" />
            <mxPoint x="-483" y="375" as="targetPoint" />
          </mxGeometry>
        </mxCell>
        <mxCell id="ayqMSGN1y0b__XrFQyUM-46" value="" style="group" vertex="1" connectable="0" parent="1">
          <mxGeometry x="-508" y="370" width="130" height="100" as="geometry" />
        </mxCell>
        <mxCell id="ayqMSGN1y0b__XrFQyUM-41" value="Publishing" style="rhombus;whiteSpace=wrap;html=1;" vertex="1" parent="ayqMSGN1y0b__XrFQyUM-46">
          <mxGeometry y="10" width="130" height="80" as="geometry" />
        </mxCell>
        <mxCell id="ayqMSGN1y0b__XrFQyUM-44" value="N" style="text;html=1;align=center;verticalAlign=middle;resizable=0;points=[];autosize=1;" vertex="1" parent="ayqMSGN1y0b__XrFQyUM-46">
          <mxGeometry x="69.87500000000001" width="20" height="20" as="geometry" />
        </mxCell>
        <mxCell id="ayqMSGN1y0b__XrFQyUM-45" value="1" style="text;html=1;align=center;verticalAlign=middle;resizable=0;points=[];autosize=1;" vertex="1" parent="ayqMSGN1y0b__XrFQyUM-46">
          <mxGeometry x="69.87500000000001" y="80" width="20" height="20" as="geometry" />
        </mxCell>
        <mxCell id="ayqMSGN1y0b__XrFQyUM-48" value="" style="group" vertex="1" connectable="0" parent="1">
          <mxGeometry x="-350" y="210" width="180" height="80" as="geometry" />
        </mxCell>
        <mxCell id="ayqMSGN1y0b__XrFQyUM-22" value="M" style="text;html=1;align=center;verticalAlign=middle;resizable=0;points=[];autosize=1;" vertex="1" parent="ayqMSGN1y0b__XrFQyUM-48">
          <mxGeometry y="20" width="30" height="20" as="geometry" />
        </mxCell>
        <mxCell id="ayqMSGN1y0b__XrFQyUM-47" value="" style="group" vertex="1" connectable="0" parent="ayqMSGN1y0b__XrFQyUM-48">
          <mxGeometry x="30" width="150" height="80" as="geometry" />
        </mxCell>
        <mxCell id="ayqMSGN1y0b__XrFQyUM-19" value="Write" style="rhombus;whiteSpace=wrap;html=1;" vertex="1" parent="ayqMSGN1y0b__XrFQyUM-47">
          <mxGeometry width="130" height="80" as="geometry" />
        </mxCell>
        <mxCell id="ayqMSGN1y0b__XrFQyUM-23" value="N" style="text;html=1;align=center;verticalAlign=middle;resizable=0;points=[];autosize=1;" vertex="1" parent="ayqMSGN1y0b__XrFQyUM-47">
          <mxGeometry x="130" y="20" width="20" height="20" as="geometry" />
        </mxCell>
        <mxCell id="ayqMSGN1y0b__XrFQyUM-58" value="" style="endArrow=none;html=1;exitX=0;exitY=0;exitDx=0;exitDy=0;entryX=0.5;entryY=1;entryDx=0;entryDy=0;" edge="1" parent="1" source="ayqMSGN1y0b__XrFQyUM-1" target="ayqMSGN1y0b__XrFQyUM-56">
          <mxGeometry width="50" height="50" relative="1" as="geometry">
            <mxPoint x="-130" y="520" as="sourcePoint" />
            <mxPoint x="-80" y="470" as="targetPoint" />
          </mxGeometry>
        </mxCell>
        <mxCell id="ayqMSGN1y0b__XrFQyUM-59" value="" style="endArrow=none;html=1;exitX=0.5;exitY=0;exitDx=0;exitDy=0;entryX=1;entryY=1;entryDx=0;entryDy=0;" edge="1" parent="1" source="ayqMSGN1y0b__XrFQyUM-56" target="ayqMSGN1y0b__XrFQyUM-4">
          <mxGeometry width="50" height="50" relative="1" as="geometry">
            <mxPoint x="-378" y="350" as="sourcePoint" />
            <mxPoint x="-328" y="300" as="targetPoint" />
          </mxGeometry>
        </mxCell>
        <mxCell id="ayqMSGN1y0b__XrFQyUM-62" value="" style="group" vertex="1" connectable="0" parent="1">
          <mxGeometry x="-310" y="380" width="130" height="120" as="geometry" />
        </mxCell>
        <mxCell id="ayqMSGN1y0b__XrFQyUM-56" value="Store" style="rhombus;whiteSpace=wrap;html=1;" vertex="1" parent="ayqMSGN1y0b__XrFQyUM-62">
          <mxGeometry y="20" width="130" height="80" as="geometry" />
        </mxCell>
        <mxCell id="ayqMSGN1y0b__XrFQyUM-60" value="M" style="text;html=1;align=center;verticalAlign=middle;resizable=0;points=[];autosize=1;" vertex="1" parent="ayqMSGN1y0b__XrFQyUM-62">
          <mxGeometry x="55" width="30" height="20" as="geometry" />
        </mxCell>
        <mxCell id="ayqMSGN1y0b__XrFQyUM-61" value="N" style="text;html=1;align=center;verticalAlign=middle;resizable=0;points=[];autosize=1;" vertex="1" parent="ayqMSGN1y0b__XrFQyUM-62">
          <mxGeometry x="50" y="100" width="20" height="20" as="geometry" />
        </mxCell>
        <mxCell id="ayqMSGN1y0b__XrFQyUM-63" value="" style="group;labelBackgroundColor=#ffffff;" vertex="1" connectable="0" parent="1">
          <mxGeometry x="-130" y="460" width="300" height="290" as="geometry" />
        </mxCell>
        <mxCell id="ayqMSGN1y0b__XrFQyUM-1" value="Warehouse" style="rounded=0;whiteSpace=wrap;html=1;" vertex="1" parent="ayqMSGN1y0b__XrFQyUM-63">
          <mxGeometry y="90" width="120" height="60" as="geometry" />
        </mxCell>
        <mxCell id="ayqMSGN1y0b__XrFQyUM-49" value="Phone" style="ellipse;whiteSpace=wrap;html=1;" vertex="1" parent="ayqMSGN1y0b__XrFQyUM-63">
          <mxGeometry x="50" y="210" width="120" height="80" as="geometry" />
        </mxCell>
        <mxCell id="ayqMSGN1y0b__XrFQyUM-50" value="Address" style="ellipse;whiteSpace=wrap;html=1;" vertex="1" parent="ayqMSGN1y0b__XrFQyUM-63">
          <mxGeometry x="180" y="120" width="120" height="80" as="geometry" />
        </mxCell>
        <mxCell id="ayqMSGN1y0b__XrFQyUM-51" value="Code" style="ellipse;whiteSpace=wrap;html=1;" vertex="1" parent="ayqMSGN1y0b__XrFQyUM-63">
          <mxGeometry x="150" width="120" height="80" as="geometry" />
        </mxCell>
        <mxCell id="ayqMSGN1y0b__XrFQyUM-52" value="" style="endArrow=none;html=1;exitX=1;exitY=0.5;exitDx=0;exitDy=0;entryX=0;entryY=0.5;entryDx=0;entryDy=0;" edge="1" parent="ayqMSGN1y0b__XrFQyUM-63" source="ayqMSGN1y0b__XrFQyUM-1" target="ayqMSGN1y0b__XrFQyUM-50">
          <mxGeometry width="50" height="50" relative="1" as="geometry">
            <mxPoint x="140" y="140" as="sourcePoint" />
            <mxPoint x="190" y="90" as="targetPoint" />
          </mxGeometry>
        </mxCell>
        <mxCell id="ayqMSGN1y0b__XrFQyUM-53" value="" style="endArrow=none;html=1;exitX=0.5;exitY=0;exitDx=0;exitDy=0;entryX=0;entryY=0.5;entryDx=0;entryDy=0;" edge="1" parent="ayqMSGN1y0b__XrFQyUM-63" source="ayqMSGN1y0b__XrFQyUM-1" target="ayqMSGN1y0b__XrFQyUM-51">
          <mxGeometry width="50" height="50" relative="1" as="geometry">
            <mxPoint x="80" y="65" as="sourcePoint" />
            <mxPoint x="130" y="15" as="targetPoint" />
          </mxGeometry>
        </mxCell>
        <mxCell id="ayqMSGN1y0b__XrFQyUM-54" value="" style="endArrow=none;html=1;entryX=0.5;entryY=1;entryDx=0;entryDy=0;exitX=0.5;exitY=0;exitDx=0;exitDy=0;" edge="1" parent="ayqMSGN1y0b__XrFQyUM-63" source="ayqMSGN1y0b__XrFQyUM-49" target="ayqMSGN1y0b__XrFQyUM-1">
          <mxGeometry width="50" height="50" relative="1" as="geometry">
            <mxPoint x="20" y="220" as="sourcePoint" />
            <mxPoint x="70" y="170" as="targetPoint" />
          </mxGeometry>
        </mxCell>
      </root>
    </mxGraphModel>
  </diagram>
</mxfile>
